# File created by Blade
# Date/Time:  Thu Jan 22 19:18:24 2015
#---------------------------------------------------------
:version 1.10
:name HOM
:units
  mass 1.0
  length 1.000000
  angle deg
:documentation
     Acclaim Skeleton File
:root
   axis xyz
   order TX TY TZ RX RY RZ
   position 0.000000 0.000000 0.000000
   orientation 0 0 0
:bonedata
   begin
      id 1
      name RightUpLeg_dum
      direction -1.000000 0.000000 0.000000
      length 4.478084
      axis 0.0 0.0 0.0 xyz
   end
   begin
      id 2
      name LeftUpLeg_dum
      direction 1.000000 0.000000 0.000000
      length 4.478084
      axis 0.0 0.0 0.0 xyz
   end
   begin
      id 3
      name Spine_dum
      direction 0.000000 1.000000 0.000000
      length 6.068208
      axis 0.0 0.0 0.0 xyz
   end
   begin
      id 4
      name RightUpLeg
      direction 0.000000 -1.000000 0.000000
      length 16.405774
      axis 0.0 0.0 0.0 xyz
      dof rx ry rz
   end
   begin
      id 5
      name RightLeg
      direction 0.000000 -1.000000 0.000000
      length 14.644143
      axis 0.0 0.0 0.0 xyz
      dof rx ry rz
   end
   begin
      id 6
      name RightFoot
      direction 0.000000 -0.258819 0.965926
      length 5.806150
      axis 15.0 0.0 0.0 xyz
      dof rx ry rz
   end
   begin
      id 7
      name RightToeBase
      direction 0.000000 0.000000 1.000000
      length 2.952750
      axis 0.0 0.0 0.0 xyz
      dof rx ry rz
   end
   begin
      id 8
      name LeftUpLeg
      direction 0.000000 -1.000000 0.000000
      length 16.405774
      axis 0.0 0.0 0.0 xyz
      dof rx ry rz
   end
   begin
      id 9
      name LeftLeg
      direction 0.000000 -1.000000 0.000000
      length 14.644143
      axis 0.0 0.0 0.0 xyz
      dof rx ry rz
   end
   begin
      id 10
      name LeftFoot
      direction 0.000000 -0.258819 0.965926
      length 5.806150
      axis 15.0 0.0 0.0 xyz
      dof rx ry rz
   end
   begin
      id 11
      name LeftToeBase
      direction 0.000000 0.000000 1.000000
      length 2.952750
      axis 0.0 0.0 0.0 xyz
      dof rx ry rz
   end
   begin
      id 12
      name Spine
      direction 0.000000 1.000000 0.000000
      length 0.000000
      axis 0.0 0.0 0.0 xyz
      dof rx ry rz
   end
   begin
      id 13
      name Spine_dum1
      direction 0.000000 1.000000 0.000000
      length 10.013923
      axis 0.0 0.0 0.0 xyz
   end
   begin
      id 14
      name Spine_dum2
      direction 0.000000 1.000000 0.000000
      length 10.013923
      axis 0.0 0.0 0.0 xyz
   end
   begin
      id 15
      name Spine_dum3
      direction 0.000000 1.000000 0.000000
      length 15.777476
      axis 0.0 0.0 0.0 xyz
   end
   begin
      id 16
      name RightShoulder
      direction -1.000000 0.000000 0.000000
      length 7.190220
      axis 0.0 0.0 90.0 xyz
      dof rx ry rz
   end
   begin
      id 17
      name RightArm
      direction -1.000000 0.000000 0.000000
      length 10.177469
      axis 0.0 0.0 90.0 xyz
      dof rx ry rz
   end
   begin
      id 18
      name RightForeArm
      direction -1.000000 0.000000 0.000000
      length 8.392114
      axis 0.0 0.0 90.0 xyz
      dof ry rz rx
   end
   begin
      id 19
      name RightHand
      direction -1.000000 0.000000 0.000000
      length 0.000000
      axis 0.0 0.0 90.0 xyz
      dof rx ry rz
   end
   begin
      id 20
      name RightHand_dum1
      direction -1.000000 0.000000 0.000000
      length 3.937000
      axis 0.0 0.0 90.0 xyz
   end
   begin
      id 21
      name RightHand_dum2
      direction 0.000000 0.000000 0.000000
      length 0.000000
      axis 0.0 0.0 90.0 xyz
   end
   begin
      id 22
      name RightHandThumb1
      direction 0.000000 0.000000 1.000000
      length 3.937000
      axis 0.0 0.0 90.0 xyz
      dof rx rz ry
   end
   begin
      id 23
      name LeftShoulder
      direction 1.000000 0.000000 0.000000
      length 7.190220
      axis 0.0 0.0 -90.0 xyz
      dof rx ry rz
   end
   begin
      id 24
      name LeftArm
      direction 1.000000 0.000000 0.000000
      length 10.177469
      axis 0.0 0.0 -90.0 xyz
      dof rx ry rz
   end
   begin
      id 25
      name LeftForeArm
      direction 1.000000 0.000000 0.000000
      length 8.392114
      axis 0.0 0.0 -90.0 xyz
      dof ry rz rx
   end
   begin
      id 26
      name LeftHand
      direction 1.000000 0.000000 0.000000
      length 0.000000
      axis 0.0 0.0 -90.0 xyz
      dof rx ry rz
   end
   begin
      id 27
      name LeftHand_dum1
      direction 1.000000 0.000000 0.000000
      length 3.937000
      axis 0.0 0.0 -90.0 xyz
   end
   begin
      id 28
      name LeftHand_dum2
      direction 0.000000 0.000000 0.000000
      length 0.000000
      axis 0.0 0.0 -90.0 xyz
   end
   begin
      id 29
      name LeftHandThumb1
      direction 0.000000 0.000000 1.000000
      length 3.937000
      axis 0.0 0.0 -90.0 xyz
      dof rx rz ry
   end
   begin
      id 30
      name Head
      direction 0.000000 1.000000 0.000000
      length 4.527550
      axis 0.0 0.0 0.0 xyz
      dof rx ry rz
   end
:hierarchy
   begin
      root RightUpLeg_dum LeftUpLeg_dum Spine_dum
      RightUpLeg_dum RightUpLeg
      LeftUpLeg_dum LeftUpLeg
      Spine_dum Spine
      RightUpLeg RightLeg
      RightLeg RightFoot
      RightFoot RightToeBase
      LeftUpLeg LeftLeg
      LeftLeg LeftFoot
      LeftFoot LeftToeBase
      Spine Spine_dum1 Spine_dum2 Spine_dum3
      Spine_dum1 RightShoulder
      Spine_dum2 LeftShoulder
      Spine_dum3 Head
      RightShoulder RightArm
      RightArm RightForeArm
      RightForeArm RightHand
      RightHand RightHand_dum1 RightHand_dum2
      RightHand_dum2 RightHandThumb1
      LeftShoulder LeftArm
      LeftArm LeftForeArm
      LeftForeArm LeftHand
      LeftHand LeftHand_dum1 LeftHand_dum2
      LeftHand_dum2 LeftHandThumb1
   end

# File created by Blade
# Date/Time:  Thu Jan 22 19:18:16 2015
# Frame Rate: 120.000 fps
#------------------------------------------------------
:FULLY-SPECIFIED
:DEGREES
469
root 3.527323 32.016951 -6.555461 80.002703 -38.101180 14.318420
RightUpLeg -100.853024 -23.515045 -21.298595
RightLeg 4.446071 -0.000000 -0.000000
RightFoot 4.437296 4.693931 12.835217
RightToeBase 7.293903 -0.000000 -0.000000
LeftUpLeg -79.502555 5.060090 -23.981749
LeftLeg -0.819315 -0.000000 0.000000
LeftFoot -7.067226 10.728461 -28.856655
LeftToeBase 9.144928 -0.000000 -0.000000
Spine 41.761375 -13.815556 11.966816
RightShoulder 1.289861 22.077009 -24.455094
RightArm 62.668673 23.816998 55.389374
RightForeArm 11.484234 -0.000000 47.066308
RightHand 8.977809 -0.000000 0.020051
RightHandThumb1 -24.326973 -0.000000 -32.862282
LeftShoulder -10.381666 -43.602898 55.321941
LeftArm 71.759070 2.713111 -34.247455
LeftForeArm 57.596484 -0.000000 31.242945
LeftHand -2.558535 0.000000 -1.177462
LeftHandThumb1 -26.253704 0.000000 33.147579
Head -49.328004 3.828149 17.510014
470
root 3.522022 32.017301 -6.559688 80.069990 -38.098532 14.298494
RightUpLeg -100.930125 -23.507245 -21.225152
RightLeg 4.431917 -0.000000 -0.000000
RightFoot 4.461045 4.764180 12.837784
RightToeBase 7.295246 -0.000000 -0.000000
LeftUpLeg -79.621738 5.063552 -23.986771
LeftLeg -0.693962 -0.000000 0.000000
LeftFoot -7.107441 10.675797 -28.867092
LeftToeBase 9.086270 -0.000000 -0.000000
Spine 41.854952 -13.852309 11.907721
RightShoulder 1.276127 22.063414 -24.446331
RightArm 62.775983 23.902235 55.394173
RightForeArm 11.506660 -0.000000 47.250859
RightHand 8.949323 -0.000000 0.043720
RightHandThumb1 -24.326973 -0.000000 -32.862282
LeftShoulder -10.464329 -43.551002 55.414066
LeftArm 71.356877 2.613645 -34.326590
LeftForeArm 57.865396 -0.000000 31.953194
LeftHand -2.667816 -0.000000 -1.346691
LeftHandThumb1 -26.253704 0.000000 33.147579
Head -49.241140 3.915652 17.509520
471
root 3.516250 32.017710 -6.560975 80.151046 -38.097217 14.264390
RightUpLeg -100.997980 -23.491423 -21.151614
RightLeg 4.399160 -0.000000 -0.000000
RightFoot 4.478116 4.815323 12.811230
RightToeBase 7.313875 -0.000000 -0.000000
LeftUpLeg -79.735606 5.073486 -23.974363
LeftLeg -0.596873 -0.000000 0.000000
LeftFoot -7.156106 10.655257 -28.884406
LeftToeBase 9.053242 -0.000000 -0.000000
Spine 41.953137 -13.810636 11.915722
RightShoulder 1.228475 22.049393 -24.403854
RightArm 62.720812 23.992456 55.178037
RightForeArm 11.528887 -0.000000 47.606477
RightHand 8.864660 0.000000 -0.179495
RightHandThumb1 -24.326973 -0.000000 -32.862282
LeftShoulder -10.548561 -43.605813 55.550324
LeftArm 70.889785 2.539295 -34.565662
LeftForeArm 58.376815 -0.000000 32.749995
LeftHand -2.772060 -0.000000 -1.357876
LeftHandThumb1 -26.253704 0.000000 33.147579
Head -49.229303 3.905517 17.528796
472
root 3.508267 32.018758 -6.566310 80.274534 -38.071815 14.212970
RightUpLeg -101.092843 -23.469516 -21.054139
RightLeg 4.357723 -0.000000 -0.000000
RightFoot 4.504724 4.842692 12.773195
RightToeBase 7.240263 -0.000000 -0.000000
LeftUpLeg -79.895788 5.075706 -23.906138
LeftLeg -0.478402 -0.000000 0.000000
LeftFoot -7.221854 10.667197 -28.875019
LeftToeBase 9.028234 -0.000000 -0.000000
Spine 42.018735 -13.752546 11.949854
RightShoulder 1.150958 21.989027 -24.359303
RightArm 62.765430 24.099360 55.065864
RightForeArm 11.564822 0.000000 47.922937
RightHand 8.780116 -0.000000 -0.247293
RightHandThumb1 -24.326973 -0.000000 -32.862282
LeftShoulder -10.681811 -43.653275 55.717979
LeftArm 70.465862 2.481075 -34.704870
LeftForeArm 58.611424 -0.000000 33.567972
LeftHand -2.839132 -0.000000 -1.550579
LeftHandThumb1 -26.253704 0.000000 33.147579
Head -49.220808 3.945948 17.540007
473
root 3.502168 32.019448 -6.567862 80.358829 -38.075151 14.183590
RightUpLeg -101.149394 -23.461471 -21.005114
RightLeg 4.305411 -0.000000 -0.000000
RightFoot 4.526605 4.873189 12.761115
RightToeBase 7.298634 -0.000000 -0.000000
LeftUpLeg -79.997814 5.066949 -23.845908
LeftLeg -0.400398 -0.000000 0.000000
LeftFoot -7.288813 10.701552 -28.905230
LeftToeBase 8.992094 -0.000000 -0.000000
Spine 42.121132 -13.793885 11.913969
RightShoulder 1.145531 22.074846 -24.326854
RightArm 62.757218 24.127185 54.982675
RightForeArm 11.655310 -0.000000 48.211871
RightHand 8.677137 -0.000000 -0.307622
RightHandThumb1 -24.326973 -0.000000 -32.862282
LeftShoulder -10.800724 -43.640451 55.814302
LeftArm 69.993705 2.380182 -34.785461
LeftForeArm 58.767932 -0.000000 34.498585
LeftHand -2.997545 0.000000 -1.866590
LeftHandThumb1 -26.253704 0.000000 33.147579
Head -49.173995 4.005000 17.503528
474
root 3.497319 32.019984 -6.569672 80.451971 -38.078397 14.151595
RightUpLeg -101.211592 -23.453562 -20.988674
RightLeg 4.278537 -0.000000 -0.000000
RightFoot 4.518878 4.850392 12.713912
RightToeBase 7.327162 -0.000000 -0.000000
LeftUpLeg -80.100115 5.053839 -23.771494
LeftLeg -0.336538 -0.000000 0.000000
LeftFoot -7.353442 10.753156 -28.937627
LeftToeBase 8.939193 -0.000000 -0.000000
Spine 42.218433 -13.840867 11.891603
RightShoulder 1.123256 22.175685 -24.332438
RightArm 62.721315 24.143353 54.925560
RightForeArm 11.686643 0.000000 48.520657
RightHand 8.598015 -0.000000 -0.360454
RightHandThumb1 -24.326973 -0.000000 -32.862282
LeftShoulder -10.941776 -43.621364 55.906765
LeftArm 69.537381 2.281879 -34.800502
LeftForeArm 58.838791 -0.000000 35.367708
LeftHand -3.090092 -0.000000 -1.989672
LeftHandThumb1 -26.253704 0.000000 33.147579
Head -49.156241 4.044068 17.463821
475
root 3.494275 32.021591 -6.568509 80.542458 -38.108462 14.119345
RightUpLeg -101.278468 -23.437981 -20.946175
RightLeg 4.218032 -0.000000 -0.000000
RightFoot 4.581166 4.866516 12.683402
RightToeBase 7.243827 -0.000000 -0.000000
LeftUpLeg -80.176055 5.036359 -23.703868
LeftLeg -0.302513 -0.000000 0.000000
LeftFoot -7.435765 10.844227 -28.949247
LeftToeBase 8.886599 -0.000000 -0.000000
Spine 42.322169 -13.830765 11.864040
RightShoulder 1.075860 22.127771 -24.339461
RightArm 62.740391 24.276102 54.888063
RightForeArm 11.819279 -0.000000 48.867559
RightHand 8.574264 -0.000000 -0.358771
RightHandThumb1 -24.326973 -0.000000 -32.862282
LeftShoulder -11.062519 -43.626090 56.011175
LeftArm 69.161291 2.161530 -34.790561
LeftForeArm 58.848271 -0.000000 36.070071
LeftHand -3.160724 -0.000000 -2.102197
LeftHandThumb1 -26.253704 0.000000 33.147579
Head -49.132054 4.078373 17.504434
476
root 3.490642 32.021605 -6.567562 80.639097 -38.121722 14.093000
RightUpLeg -101.339024 -23.436018 -20.930086
RightLeg 4.170567 -0.000000 -0.000000
RightFoot 4.588800 4.841751 12.632425
RightToeBase 7.249179 -0.000000 -0.000000
LeftUpLeg -80.256394 5.011201 -23.616543
LeftLeg -0.275592 -0.000000 0.000000
LeftFoot -7.504395 10.924497 -28.978164
LeftToeBase 8.860421 -0.000000 -0.000000
Spine 42.393250 -13.798902 11.874826
RightShoulder 1.040841 22.030417 -24.318797
RightArm 62.738293 24.447636 54.816650
RightForeArm 11.863077 -0.000000 49.240006
RightHand 8.542781 -0.000000 -0.366141
RightHandThumb1 -24.326973 -0.000000 -32.862282
LeftShoulder -11.138253 -43.690485 56.145384
LeftArm 68.732754 2.074658 -34.826425
LeftForeArm 58.925856 -0.000000 36.686352
LeftHand -3.230675 0.000000 -2.035230
LeftHandThumb1 -26.253704 0.000000 33.147579
Head -49.071869 4.076181 17.547379
477
root 3.486074 32.021129 -6.567113 80.777183 -38.152180 14.059756
RightUpLeg -101.450947 -23.439585 -20.927427
RightLeg 4.150050 -0.000000 -0.000000
RightFoot 4.591011 4.810269 12.598711
RightToeBase 7.298841 -0.000000 -0.000000
LeftUpLeg -80.368918 4.983011 -23.560593
LeftLeg -0.259205 -0.000000 0.000000
LeftFoot -7.578829 10.994889 -29.012167
LeftToeBase 8.838623 -0.000000 -0.000000
Spine 42.409988 -13.770382 11.868600
RightShoulder 1.052728 22.073259 -24.249853
RightArm 62.607300 24.525910 54.658147
RightForeArm 11.925101 -0.000000 49.643619
RightHand 8.482288 -0.000000 -0.421264
RightHandThumb1 -24.326973 -0.000000 -32.862282
LeftShoulder -11.261918 -43.709218 56.271126
LeftArm 68.367575 1.989612 -34.858750
LeftForeArm 58.876342 -0.000000 37.236532
LeftHand -3.214837 0.000000 -1.955261
LeftHandThumb1 -26.253704 0.000000 33.147579
Head -49.017927 4.082552 17.598550
478
root 3.482405 32.021699 -6.565934 80.916154 -38.181864 14.028245
RightUpLeg -101.565930 -23.441347 -20.893962
RightLeg 4.113797 -0.000000 -0.000000
RightFoot 4.618221 4.784004 12.555572
RightToeBase 7.232751 -0.000000 -0.000000
LeftUpLeg -80.482697 4.958216 -23.538108
LeftLeg -0.249828 -0.000000 0.000000
LeftFoot -7.629820 11.039304 -29.044422
LeftToeBase 8.850487 -0.000000 -0.000000
Spine 42.452369 -13.723999 11.882480
RightShoulder 0.977566 22.066932 -24.228234
RightArm 62.562214 24.611109 54.555561
RightForeArm 12.009148 -0.000000 50.016350
RightHand 8.523115 -0.000000 -0.588100
RightHandThumb1 -24.326973 -0.000000 -32.862282
LeftShoulder -11.441346 -43.703988 56.456172
LeftArm 68.051273 1.870155 -34.898877
LeftForeArm 58.748583 0.000000 37.795968
LeftHand -3.211376 -0.000000 -2.051052
LeftHandThumb1 -26.253704 0.000000 33.147579
Head -49.016196 4.080901 17.657868
479
root 3.476600 32.021802 -6.565422 81.033864 -38.206827 13.991042
RightUpLeg -101.662714 -23.426063 -20.851588
RightLeg 4.076727 -0.000000 -0.000000
RightFoot 4.638325 4.783025 12.529768
RightToeBase 7.231588 -0.000000 -0.000000
LeftUpLeg -80.576402 4.952755 -23.518572
LeftLeg -0.242566 -0.000000 0.000000
LeftFoot -7.663632 11.066430 -29.073889
LeftToeBase 8.806104 -0.000000 -0.000000
Spine 42.510967 -13.651776 11.899815
RightShoulder 0.946234 22.017253 -24.183758
RightArm 62.486230 24.767370 54.446431
RightForeArm 12.062448 -0.000000 50.433759
RightHand 8.426985 -0.000000 -0.615545
RightHandThumb1 -24.326973 -0.000000 -32.862282
LeftShoulder -11.539171 -43.784427 56.629173
LeftArm 67.625795 1.778111 -34.955717
LeftForeArm 58.800584 -0.000000 38.446730
LeftHand -3.243221 -0.000000 -2.115075
LeftHandThumb1 -26.253704 0.000000 33.147579
Head -49.026023 4.085265 17.719505
480
root 3.472161 32.021702 -6.565791 81.139853 -38.230751 13.967019
RightUpLeg -101.766358 -23.422362 -20.796972
RightLeg 4.049888 -0.000000 -0.000000
RightFoot 4.659214 4.800828 12.513893
RightToeBase 7.273336 -0.000000 -0.000000
LeftUpLeg -80.664756 4.936996 -23.486890
LeftLeg -0.225240 -0.000000 0.000000
LeftFoot -7.708729 11.092543 -29.105987
LeftToeBase 8.821007 -0.000000 -0.000000
Spine 42.569385 -13.642464 11.894899
RightShoulder 0.968293 22.035359 -24.157518
RightArm 62.376534 24.897726 54.320908
RightForeArm 12.010214 -0.000000 50.828914
RightHand 8.313586 0.000000 -0.676162
RightHandThumb1 -24.326973 -0.000000 -32.862282
LeftShoulder -11.635894 -43.754026 56.724255
LeftArm 67.266052 1.654249 -34.838920
LeftForeArm 58.936145 -0.000000 39.118377
LeftHand -3.351434 -0.000000 -2.038976
LeftHandThumb1 -26.253704 0.000000 33.147579
Head -49.005820 4.132748 17.685711
481
root 3.467588 32.021750 -6.565302 81.254471 -38.234023 13.941131
RightUpLeg -101.876492 -23.422200 -20.703634
RightLeg 4.020288 -0.000000 -0.000000
RightFoot 4.675819 4.844796 12.518237
RightToeBase 7.279330 -0.000000 -0.000000
LeftUpLeg -80.762579 4.921097 -23.456471
LeftLeg -0.211792 -0.000000 0.000000
LeftFoot -7.724201 11.100705 -29.108501
LeftToeBase 8.794598 -0.000000 -0.000000
Spine 42.603603 -13.484507 12.023803
RightShoulder 0.784091 21.968575 -24.167343
RightArm 62.309422 25.041151 54.226538
RightForeArm 11.947299 -0.000000 51.208432
RightHand 8.203357 -0.000000 -0.651716
RightHandThumb1 -24.326973 -0.000000 -32.862282
LeftShoulder -11.664010 -43.859878 56.842883
LeftArm 66.890512 1.499052 -34.926902
LeftForeArm 59.120126 -0.000000 39.890811
LeftHand -3.370835 -0.000000 -2.317288
LeftHandThumb1 -26.253704 0.000000 33.147579
Head -49.061626 4.042237 17.724390
